<?xml version="1.0" encoding="UTF-8"?> <svg xmlns="http://www.w3.org/2000/svg" width="150" height="35" viewBox="0 0 150 35" fill="none"><path fill-rule="evenodd" clip-rule="evenodd" d="M48.8182 18.8268C48.9387 13.5386 52.5856 10.3123 56.2992 10.3123C60.444 10.3123 62.7209 13.2745 62.6068 17.8977C62.602 18.4 62.5574 18.9011 62.4736 19.3963H51.5233C51.6438 22.89 53.7019 25.0854 56.8129 25.0854C57.982 25.078 59.1316 24.7841 60.1617 24.2295C60.6852 24.1246 61.2114 24.3965 61.4302 24.885C61.6503 25.2476 61.5597 25.7187 61.2209 25.9732L61.1575 26.0082C61.1236 26.0292 61.0874 26.0463 61.0497 26.0591C59.6371 26.851 58.0473 27.2703 56.4292 27.2777C52.0751 27.2777 48.6977 24.115 48.8182 18.8268ZM51.5232 17.5954H60.2188V17.5986C60.2917 14.3182 58.8583 12.4759 56.3182 12.4727C54.0602 12.4727 51.9323 14.3341 51.5232 17.5954Z" fill="white"></path><path fill-rule="evenodd" clip-rule="evenodd" d="M85.8995 17.5638C84.076 16.8638 82.3128 16.2657 82.3477 14.7702C82.3762 13.5388 83.334 12.4411 85.3762 12.4411C86.3895 12.4537 87.3787 12.7525 88.2304 13.3034C88.456 13.4754 88.7462 13.5376 89.0222 13.473C89.2981 13.4084 89.531 13.2237 89.6574 12.9693C89.9258 12.4288 89.7788 11.7736 89.3054 11.4007C88.115 10.7015 86.7619 10.3295 85.3826 10.322C81.8688 10.322 79.7505 12.317 79.6934 14.9134C79.6331 17.6402 82.1511 18.7316 84.4502 19.5716C86.2071 20.2366 88.1289 20.9684 88.094 22.6293C88.0655 24.0261 86.9714 25.1747 84.8276 25.1747C83.3944 25.1585 82.0049 24.6774 80.8667 23.8034C80.451 23.509 79.882 23.5703 79.538 23.9466L79.5158 23.972C79.4714 24.0221 79.4321 24.0764 79.3984 24.1343C79.0867 24.7067 79.2406 25.4219 79.76 25.8143C81.2323 26.7461 82.9317 27.2535 84.6722 27.2811C88.5189 27.2811 90.6754 25.0857 90.7325 22.4575C90.8086 19.4093 88.2208 18.4293 85.8995 17.5638Z" fill="white"></path><path fill-rule="evenodd" clip-rule="evenodd" d="M95.315 12.2564C96.8055 11.4196 98.8192 10.5828 101.077 10.5828C105.057 10.5701 106.681 13.1251 106.589 17.0451L106.563 26.2914C106.503 26.8752 105.996 27.3083 105.412 27.2746C104.782 27.2983 104.24 26.8287 104.172 26.1992L103.944 24.8374H103.877C102.279 26.0751 100.456 27.1283 98.4482 27.1283C95.705 27.1283 93.6976 25.496 93.7515 22.6737C93.8181 19.2374 96.9291 17.5064 103.865 16.7364C103.903 14.7255 103.24 12.791 100.598 12.791C99.1809 12.8366 97.7983 13.2428 96.5803 13.9714C96.0587 14.1708 95.4691 13.9772 95.1659 13.5069C94.8393 13.0424 94.9091 12.4983 95.315 12.2564ZM99.26 24.9901C100.833 24.9837 102.165 24.2328 103.751 22.8646L103.833 18.4864C98.3689 19.1546 96.5042 20.4592 96.4662 22.4669C96.4344 24.2519 97.6871 24.9964 99.26 24.9901Z" fill="white"></path><path fill-rule="evenodd" clip-rule="evenodd" d="M121.779 18.8268C121.896 13.5386 125.547 10.3123 129.257 10.3123C133.405 10.3123 135.682 13.2745 135.577 17.8977C135.572 18.4 135.528 18.9011 135.444 19.3963H124.484C124.605 22.89 126.663 25.0854 129.774 25.0854C130.943 25.0782 132.093 24.7844 133.123 24.2295C133.646 24.1233 134.173 24.3956 134.391 24.885C134.611 25.2476 134.521 25.7187 134.182 25.9732L134.118 26.0082C134.085 26.0293 134.048 26.0464 134.011 26.0591C132.598 26.8508 131.008 27.2701 129.39 27.2777C125.033 27.2777 121.662 24.115 121.779 18.8268ZM124.481 17.5954H133.177V17.5986C133.25 14.3182 131.819 12.4759 129.279 12.4727C127.018 12.4727 124.89 14.3341 124.481 17.5954Z" fill="white"></path><path fill-rule="evenodd" clip-rule="evenodd" d="M71.8985 17.5638C70.0751 16.8638 68.315 16.2657 68.3467 14.7702C68.3753 13.5388 69.333 12.4411 71.3753 12.4411C72.3887 12.4525 73.3782 12.7514 74.2294 13.3034C74.455 13.4754 74.7453 13.5376 75.0212 13.473C75.2972 13.4084 75.53 13.2237 75.6565 12.9693C75.9249 12.4288 75.7778 11.7736 75.3044 11.4007C74.1141 10.7012 72.761 10.3292 71.3816 10.322C67.871 10.322 65.7558 12.317 65.6987 14.9134C65.6385 17.6402 68.1533 18.7316 70.4556 19.5716C72.2157 20.2366 74.1406 20.9684 74.1025 22.6293C74.0708 24.0261 72.9768 25.1748 70.8362 25.1748C69.4025 25.1656 68.01 24.6924 66.8658 23.8257C66.4514 23.5303 65.8824 23.5917 65.5402 23.9688L65.518 23.9943C65.4731 24.0439 65.4337 24.0983 65.4006 24.1566C65.0889 24.729 65.2428 25.4442 65.7622 25.8366C67.2391 26.7672 68.9432 27.2715 70.6871 27.2938C74.5307 27.2938 76.6871 25.0984 76.7474 22.4702C76.8044 19.4093 74.2072 18.4293 71.8985 17.5638Z" fill="white"></path><path fill-rule="evenodd" clip-rule="evenodd" d="M144.901 17.5638C143.077 16.8638 141.317 16.2657 141.349 14.7702C141.377 13.5388 142.338 12.4411 144.377 12.4411C145.391 12.4537 146.38 12.7525 147.232 13.3034C147.457 13.4754 147.747 13.5376 148.023 13.473C148.299 13.4084 148.532 13.2237 148.659 12.9693C148.927 12.4288 148.78 11.7736 148.307 11.4007C147.116 10.7011 145.763 10.329 144.384 10.322C140.87 10.322 138.752 12.317 138.698 14.9134C138.637 17.6402 141.155 18.7316 143.455 19.5716C145.211 20.2366 147.136 20.9684 147.098 22.6293C147.067 24.0261 145.973 25.1748 143.832 25.1748C142.392 25.1612 140.996 24.6801 139.852 23.8034C139.436 23.509 138.867 23.5703 138.523 23.9466L138.504 23.972C138.46 24.0222 138.421 24.0765 138.387 24.1343C138.073 24.7057 138.226 25.4218 138.745 25.8143C140.223 26.7438 141.926 27.2479 143.67 27.2716C147.517 27.2716 149.673 25.0761 149.73 22.4479C149.81 19.4093 147.222 18.4293 144.901 17.5638Z" fill="white"></path><path fill-rule="evenodd" clip-rule="evenodd" d="M119.204 10.4524H118.969C117.197 10.4906 115.586 11.7506 114.485 13.701V11.4356C114.408 10.7232 113.801 10.1884 113.087 10.2042H113.007C112.672 10.2033 112.351 10.3377 112.116 10.5771C111.881 10.8166 111.752 11.1409 111.758 11.4769V15.8392V26.126C111.832 26.8421 112.442 27.3809 113.16 27.3637H113.239C113.574 27.3646 113.895 27.2302 114.13 26.9908C114.365 26.7513 114.494 26.427 114.488 26.091V16.8415C115.589 14.0542 117.228 13.0042 118.611 12.9756C118.882 12.9672 119.154 12.9832 119.423 13.0233C119.713 13.0279 119.992 12.9049 120.184 12.6865C120.377 12.4682 120.465 12.1762 120.425 11.8874C120.393 11.1852 119.89 10.5943 119.204 10.4524Z" fill="white"></path><path fill-rule="evenodd" clip-rule="evenodd" d="M46.9566 25.6743C46.7334 25.1534 46.1801 24.8574 45.6247 24.9615C45.3822 25.0272 45.1334 25.0667 44.8826 25.0793C43.0116 25.1238 42.3741 24.0102 42.3678 22.012V12.8674H45.0158C45.2901 12.8286 45.5368 12.6795 45.6995 12.4545C45.8621 12.2296 45.9267 11.9479 45.8784 11.6743C45.8314 11.0976 45.3577 10.6497 44.7811 10.637H42.3678V7.75109C42.3678 7.75109 42.3678 7.732 42.3678 7.72245C42.3782 6.96705 41.7868 6.3409 41.0344 6.3107C40.2821 6.28051 39.6427 6.85727 39.593 7.61109V10.6338H38.3625C37.7866 10.6467 37.3138 11.0949 37.2684 11.6711C37.2201 11.9443 37.2842 12.2255 37.4462 12.4504C37.6082 12.6752 37.8541 12.8246 38.1278 12.8643H39.593V22.0438C39.593 25.2256 40.7758 27.4052 44.2515 27.3193C45.0273 27.2788 45.7941 27.1344 46.5317 26.8897C47.0137 26.7497 47.204 26.2056 46.9566 25.6743Z" fill="white"></path><path fill-rule="evenodd" clip-rule="evenodd" d="M25.0846 1.75328C24.677 0.980772 23.9801 0.402508 23.1473 0.145879C22.3146 -0.110749 21.4143 -0.0246894 20.6448 0.385101L11.9461 5.01146L11.7526 5.1101C10.2642 5.90021 9.15002 7.25177 8.65569 8.86686C8.16135 10.482 8.32743 12.228 9.11734 13.7201L9.20613 13.8792H9.19028L12.0444 19.2883C10.5849 16.2095 11.8029 12.5237 14.8066 10.9296L15 10.831L23.7209 6.20465C24.4909 5.79574 25.0672 5.0965 25.323 4.26096C25.5788 3.42543 25.493 2.52214 25.0846 1.7501" fill="white"></path><path fill-rule="evenodd" clip-rule="evenodd" d="M9.17434 33.2947C10.0658 34.872 12.0604 35.4296 13.6363 34.5419L22.1986 29.6865L22.3889 29.5847C23.8559 28.7553 24.934 27.3746 25.3855 25.747C25.837 24.1194 25.6249 22.3784 24.7959 20.9078L24.7008 20.7488H24.7166L21.7293 15.4128C23.2699 18.4507 22.1513 22.167 19.1923 23.8415L19.002 23.9433L10.4397 28.7988C8.86187 29.6934 8.30537 31.7018 9.19654 33.2851" fill="white"></path><path fill-rule="evenodd" clip-rule="evenodd" d="M32.4037 24.8182C33.1507 24.3693 33.6893 23.6411 33.901 22.7937C34.1128 21.9464 33.9803 21.0493 33.5327 20.3L28.4587 11.8236L28.3508 11.6359C26.5501 8.62871 22.6634 7.65095 19.6616 9.44999L19.5062 9.54862L14.2705 12.6891C17.2582 11.0653 20.9905 12.0924 22.7346 15.0182L22.8424 15.2059L27.9069 23.6854C28.8371 25.2438 30.8501 25.7509 32.4037 24.8182Z" fill="white"></path><path fill-rule="evenodd" clip-rule="evenodd" d="M0.513686 15.05L5.79381 23.3896L5.90481 23.5741C6.80723 25.0005 8.23791 26.0082 9.88152 26.3753C11.5251 26.7423 13.2468 26.4386 14.667 25.5309L14.8192 25.4291V25.4482L19.9788 22.1487C17.034 23.8545 13.2723 22.9267 11.4513 20.0455C11.4101 19.985 11.372 19.9214 11.3372 19.8609L6.05386 11.5182C5.07055 10.0111 3.06282 9.57629 1.54748 10.5423C0.0321439 11.5083 -0.428444 13.5167 0.513686 15.05Z" fill="white"></path></svg> 